# xmcd
#
# Track frame offsets: 
#        150
#        17762
#        38998
#        52405
#        76030
#        91604
#        108154
#        136564
#        152346
#        173276
#        188470
#
# Disc length: 2810 seconds
#
# Revision: 0
# Processed by: cddbd v1.5.2PL0 Copyright (c) Steve Scherf et al.
# Submitted via: ExactAudioCopyFreeDBPlugin 1.0
#
DISCID=6a0af80b
DTITLE=David Migden and The Twisted Roots - Killing It
DYEAR=2012
DGENRE=Blues Rock
TTITLE0=Killing It
TTITLE1=Blues
TTITLE2=Old Joe 
TTITLE3=Shel Silverstein
TTITLE4=D.A.W.T.P.W.M.
TTITLE5=Rev Jack Crow
TTITLE6=Heaven
TTITLE7=Admiral
TTITLE8=Desert Inside
TTITLE9=I Can't See Her Face
TTITLE10=The Line
EXTD=
EXTT0=
EXTT1=
EXTT2=
EXTT3=
EXTT4=
EXTT5=
EXTT6=
EXTT7=
EXTT8=
EXTT9=
EXTT10=
PLAYORDER=
